<svg xmlns="http://www.w3.org/2000/svg" xmlns:xlink="http://www.w3.org/1999/xlink" width="396" zoomAndPan="magnify" viewBox="0 0 297.75 419.249985" height="559" preserveAspectRatio="xMidYMid meet" version="1.0"><defs><g/><clipPath id="399be83b14"><path d="M 156 108 L 188 108 L 188 131 L 156 131 Z M 156 108 " clip-rule="nonzero"/></clipPath><clipPath id="47b15c6692"><path d="M 159.449219 103.351562 L 188.703125 109.886719 L 183.636719 132.554688 L 154.386719 126.019531 Z M 159.449219 103.351562 " clip-rule="nonzero"/></clipPath><clipPath id="14656876a7"><path d="M 159.449219 103.351562 L 188.703125 109.886719 L 183.636719 132.554688 L 154.386719 126.019531 Z M 159.449219 103.351562 " clip-rule="nonzero"/></clipPath><clipPath id="e0154c720d"><path d="M 159.449219 103.351562 L 188.703125 109.886719 L 183.636719 132.554688 L 154.386719 126.019531 Z M 159.449219 103.351562 " clip-rule="nonzero"/></clipPath><clipPath id="3afb5ea030"><path d="M 159.457031 103.351562 L 188.699219 109.886719 L 183.632812 132.5625 L 154.390625 126.027344 Z M 159.457031 103.351562 " clip-rule="nonzero"/></clipPath><clipPath id="c709a8d1f5"><path d="M 159.457031 103.351562 L 188.695312 109.882812 L 183.632812 132.554688 L 154.390625 126.019531 Z M 159.457031 103.351562 " clip-rule="nonzero"/></clipPath></defs><g clip-path="url(#399be83b14)"><g clip-path="url(#47b15c6692)"><g clip-path="url(#14656876a7)"><g clip-path="url(#e0154c720d)"><g clip-path="url(#3afb5ea030)"><g clip-path="url(#c709a8d1f5)"><path fill="#ffecd2" d="M 184.222656 115.027344 L 186.546875 114.429688 L 186.304688 116.835938 Z M 178.6875 118.464844 L 183.417969 115.308594 L 185.757812 117.339844 Z M 182.84375 118.808594 C 183.71875 121.542969 183.128906 124.480469 181.269531 126.664062 C 179.3125 128.957031 176.28125 129.972656 173.359375 129.320312 L 173.355469 129.320312 C 172.074219 129.03125 170.867188 128.421875 169.867188 127.554688 C 169.695312 127.40625 169.535156 127.25 169.378906 127.089844 C 169.582031 126.976562 169.78125 126.859375 169.976562 126.730469 C 170.082031 126.835938 170.195312 126.9375 170.308594 127.039062 C 171.242188 127.847656 172.339844 128.398438 173.511719 128.660156 C 174.214844 128.820312 174.949219 128.871094 175.691406 128.8125 C 177.664062 128.660156 179.464844 127.738281 180.757812 126.222656 C 182.464844 124.21875 183.003906 121.527344 182.203125 119.023438 L 182.089844 118.675781 L 182.765625 118.566406 Z M 157.246094 117.363281 C 158.226562 112.96875 162.5625 110.1875 166.910156 111.15625 C 168.484375 111.507812 169.84375 112.304688 170.894531 113.382812 C 170.691406 113.496094 170.492188 113.617188 170.292969 113.746094 C 169.347656 112.816406 168.144531 112.128906 166.761719 111.820312 C 162.777344 110.929688 158.804688 113.484375 157.902344 117.507812 C 157.003906 121.535156 159.511719 125.535156 163.5 126.425781 C 167.484375 127.316406 171.457031 124.765625 172.355469 120.738281 C 172.746094 118.988281 172.492188 117.246094 171.757812 115.761719 C 171.949219 115.640625 172.144531 115.53125 172.347656 115.433594 C 173.160156 117.058594 173.441406 118.96875 173.015625 120.886719 C 172.035156 125.277344 167.699219 128.0625 163.351562 127.089844 C 159.003906 126.121094 156.265625 121.753906 157.246094 117.363281 Z M 166.191406 122.054688 C 166.277344 123.234375 166.582031 124.355469 167.082031 125.382812 C 166.019531 125.726562 164.859375 125.800781 163.695312 125.539062 C 160.195312 124.757812 157.988281 121.242188 158.78125 117.707031 C 159.570312 114.167969 163.0625 111.925781 166.5625 112.707031 C 167.722656 112.96875 168.738281 113.527344 169.550781 114.289062 C 169.125 114.636719 168.722656 115.027344 168.355469 115.460938 C 166.785156 117.300781 166.019531 119.640625 166.191406 122.054688 Z M 169.257812 124.183594 C 168.921875 123.464844 168.71875 122.679688 168.660156 121.863281 C 168.53125 120.113281 169.089844 118.417969 170.226562 117.082031 C 170.46875 116.796875 170.734375 116.535156 171.015625 116.300781 C 171.613281 117.578125 171.8125 119.058594 171.480469 120.542969 C 171.148438 122.027344 170.34375 123.28125 169.257812 124.183594 Z M 176.480469 113.300781 L 176.746094 113.359375 L 176.742188 114.035156 L 176.386719 113.976562 C 173.808594 113.550781 171.25 114.492188 169.546875 116.492188 C 168.25 118.011719 167.617188 119.941406 167.761719 121.933594 C 167.832031 122.917969 168.09375 123.859375 168.515625 124.71875 C 168.324219 124.835938 168.125 124.945312 167.921875 125.046875 C 167.453125 124.105469 167.167969 123.070312 167.089844 121.988281 C 166.933594 119.8125 167.625 117.707031 169.035156 116.050781 C 170.898438 113.867188 173.6875 112.839844 176.480469 113.300781 Z M 179.84375 112.207031 L 177.457031 117.394531 L 177.503906 110.175781 Z M 180.238281 108.957031 L 180 111.363281 L 177.917969 109.554688 Z M 181.191406 118.816406 L 181.34375 119.304688 C 182.050781 121.507812 181.578125 123.871094 180.078125 125.632812 C 178.941406 126.964844 177.359375 127.773438 175.625 127.910156 C 173.890625 128.042969 172.210938 127.488281 170.894531 126.347656 C 170.835938 126.296875 170.777344 126.246094 170.722656 126.191406 C 172.269531 124.941406 173.421875 123.175781 173.890625 121.082031 C 174.363281 118.980469 174.0625 116.886719 173.1875 115.09375 C 174.152344 114.78125 175.195312 114.699219 176.238281 114.871094 L 176.738281 114.953125 L 176.710938 119.097656 C 176.710938 119.125 176.710938 119.152344 176.71875 119.175781 C 176.71875 119.175781 176.71875 119.175781 176.71875 119.179688 C 176.726562 119.210938 176.738281 119.246094 176.757812 119.273438 C 176.761719 119.28125 176.765625 119.289062 176.769531 119.296875 C 176.789062 119.328125 176.808594 119.355469 176.835938 119.378906 C 176.863281 119.402344 176.894531 119.421875 176.929688 119.4375 C 176.9375 119.4375 176.945312 119.441406 176.953125 119.445312 C 176.984375 119.457031 177.019531 119.464844 177.054688 119.46875 C 177.078125 119.46875 177.105469 119.46875 177.132812 119.464844 Z M 180.421875 112.710938 L 182.839844 114.808594 L 177.957031 118.066406 Z M 183.035156 111.019531 L 180.710938 111.617188 L 180.953125 109.214844 Z M 183.152344 114.097656 L 181.070312 112.292969 L 183.390625 111.691406 Z M 186.1875 113.757812 L 183.867188 114.355469 L 184.105469 111.949219 Z M 186.964844 117.617188 C 186.964844 117.617188 186.96875 117.617188 186.96875 117.617188 L 187.328125 113.976562 C 187.328125 113.96875 187.328125 113.964844 187.328125 113.960938 C 187.332031 113.941406 187.328125 113.917969 187.328125 113.894531 C 187.328125 113.886719 187.324219 113.878906 187.324219 113.871094 C 187.320312 113.851562 187.316406 113.832031 187.308594 113.816406 C 187.304688 113.808594 187.304688 113.796875 187.300781 113.789062 C 187.292969 113.773438 187.28125 113.753906 187.273438 113.738281 C 187.265625 113.730469 187.265625 113.726562 187.257812 113.71875 C 187.242188 113.695312 187.226562 113.675781 187.203125 113.65625 L 180.898438 108.183594 C 180.875 108.167969 180.851562 108.152344 180.828125 108.140625 C 180.820312 108.136719 180.8125 108.132812 180.808594 108.128906 C 180.789062 108.121094 180.769531 108.113281 180.753906 108.109375 C 180.742188 108.105469 180.734375 108.105469 180.726562 108.105469 C 180.707031 108.101562 180.691406 108.097656 180.671875 108.097656 C 180.664062 108.097656 180.652344 108.097656 180.644531 108.097656 C 180.625 108.097656 180.601562 108.101562 180.582031 108.105469 C 180.578125 108.105469 180.574219 108.105469 180.566406 108.105469 L 177.050781 109.011719 C 177.050781 109.011719 177.050781 109.011719 177.050781 109.015625 C 177.015625 109.023438 176.980469 109.039062 176.949219 109.058594 C 176.945312 109.0625 176.9375 109.066406 176.933594 109.070312 C 176.90625 109.085938 176.882812 109.105469 176.863281 109.128906 C 176.859375 109.132812 176.859375 109.136719 176.855469 109.140625 C 176.851562 109.144531 176.851562 109.148438 176.847656 109.15625 C 176.828125 109.183594 176.8125 109.210938 176.800781 109.242188 C 176.796875 109.246094 176.796875 109.25 176.792969 109.253906 C 176.78125 109.289062 176.777344 109.324219 176.777344 109.359375 C 176.777344 109.363281 176.773438 109.367188 176.773438 109.371094 L 176.753906 112.429688 L 176.648438 112.410156 C 174.953125 112.128906 173.265625 112.335938 171.746094 112.972656 C 170.550781 111.65625 168.964844 110.683594 167.109375 110.269531 C 162.277344 109.191406 157.460938 112.285156 156.367188 117.167969 C 155.277344 122.046875 158.320312 126.898438 163.152344 127.976562 C 165.015625 128.394531 166.875 128.1875 168.519531 127.5 C 168.757812 127.761719 169.011719 128.011719 169.277344 128.242188 C 170.390625 129.207031 171.730469 129.886719 173.160156 130.207031 C 176.410156 130.933594 179.777344 129.800781 181.949219 127.253906 C 184.015625 124.828125 184.671875 121.566406 183.699219 118.527344 L 183.664062 118.425781 L 186.65625 117.949219 C 186.660156 117.945312 186.664062 117.945312 186.667969 117.945312 C 186.703125 117.9375 186.738281 117.925781 186.769531 117.910156 C 186.773438 117.90625 186.777344 117.90625 186.78125 117.902344 C 186.808594 117.886719 186.835938 117.867188 186.859375 117.84375 C 186.863281 117.839844 186.867188 117.835938 186.871094 117.828125 C 186.875 117.828125 186.878906 117.824219 186.878906 117.820312 C 186.902344 117.796875 186.917969 117.769531 186.929688 117.742188 C 186.933594 117.738281 186.933594 117.730469 186.9375 117.722656 C 186.953125 117.691406 186.960938 117.65625 186.964844 117.617188 " fill-opacity="1" fill-rule="nonzero"/></g></g></g></g></g></g><g fill="#ffecd2" fill-opacity="1"><g transform="translate(137.783547, 105.250406)"><g><path d="M 0.628906 0 L 2.300781 0 C 4.5 0 6.296875 0.417969 8.140625 0.417969 C 14.585938 0.417969 17.640625 -4.730469 17.640625 -10.464844 C 17.640625 -16.195312 14.585938 -21.34375 8.140625 -21.34375 C 6.296875 -21.34375 4.5 -20.925781 2.300781 -20.925781 L 0.628906 -20.925781 L 0.628906 -20.71875 C 2.425781 -20.71875 2.554688 -19.230469 2.554688 -15.109375 L 2.554688 -5.816406 C 2.554688 -1.695312 2.425781 -0.210938 0.628906 -0.210938 Z M 4.332031 -20.464844 C 5.546875 -20.84375 6.757812 -21.050781 8.121094 -21.050781 C 13.289062 -21.050781 15.839844 -16.175781 15.839844 -10.464844 C 15.839844 -4.75 13.289062 0.125 8.121094 0.125 C 6.757812 0.125 5.546875 -0.0820312 4.332031 -0.460938 Z M 4.332031 -20.464844 "/></g></g></g><g fill="#ffecd2" fill-opacity="1"><g transform="translate(150.650208, 116.58653)"><g><path d="M 0.628906 0 L 2.300781 0 C 4.5 0 6.296875 0.417969 8.140625 0.417969 C 14.585938 0.417969 17.640625 -4.730469 17.640625 -10.464844 C 17.640625 -16.195312 14.585938 -21.34375 8.140625 -21.34375 C 6.296875 -21.34375 4.5 -20.925781 2.300781 -20.925781 L 0.628906 -20.925781 L 0.628906 -20.71875 C 2.425781 -20.71875 2.554688 -19.230469 2.554688 -15.109375 L 2.554688 -5.816406 C 2.554688 -1.695312 2.425781 -0.210938 0.628906 -0.210938 Z M 4.332031 -20.464844 C 5.546875 -20.84375 6.757812 -21.050781 8.121094 -21.050781 C 13.289062 -21.050781 15.839844 -16.175781 15.839844 -10.464844 C 15.839844 -4.75 13.289062 0.125 8.121094 0.125 C 6.757812 0.125 5.546875 -0.0820312 4.332031 -0.460938 Z M 4.332031 -20.464844 "/></g></g></g></svg>